<?xml version="1.0" encoding="UTF-8" standalone="no"?>
<!-- Created with Inkscape (http://www.inkscape.org/) -->

<svg
   xmlns:dc="http://purl.org/dc/elements/1.1/"
   xmlns:cc="http://creativecommons.org/ns#"
   xmlns:rdf="http://www.w3.org/1999/02/22-rdf-syntax-ns#"
   xmlns:svg="http://www.w3.org/2000/svg"
   xmlns="http://www.w3.org/2000/svg"
   xmlns:sodipodi="http://sodipodi.sourceforge.net/DTD/sodipodi-0.dtd"
   xmlns:inkscape="http://www.inkscape.org/namespaces/inkscape"
   width="200"
   height="200"
   viewBox="0 0 200 199.99999"
   id="svg4144"
   version="1.1"
   inkscape:version="0.91 r13725"
   sodipodi:docname="svg.svg"
   inkscape:export-filename="/home/laurent/PhpstormProjects/odsPhpGenerator/examples/imgs/img.png"
   inkscape:export-xdpi="375"
   inkscape:export-ydpi="375">
  <defs
     id="defs4146">
    <marker
       inkscape:stockid="Arrow1Lstart"
       orient="auto"
       refY="0.0"
       refX="0.0"
       id="marker6412"
       style="overflow:visible"
       inkscape:isstock="true">
      <path
         id="path6414"
         d="M 0.0,0.0 L 5.0,-5.0 L -12.5,0.0 L 5.0,5.0 L 0.0,0.0 z "
         style="fill-rule:evenodd;stroke:#000000;stroke-width:1.0pt"
         transform="scale(0.8) translate(12.5,0)" />
    </marker>
    <marker
       inkscape:stockid="Arrow1Lstart"
       orient="auto"
       refY="0.0"
       refX="0.0"
       id="marker6396"
       style="overflow:visible"
       inkscape:isstock="true">
      <path
         id="path6398"
         d="M 0.0,0.0 L 5.0,-5.0 L -12.5,0.0 L 5.0,5.0 L 0.0,0.0 z "
         style="fill-rule:evenodd;stroke:#000000;stroke-width:1.0pt"
         transform="scale(0.8) translate(12.5,0)" />
    </marker>
    <marker
       inkscape:stockid="Arrow1Lstart"
       orient="auto"
       refY="0.0"
       refX="0.0"
       id="Arrow1Lstart"
       style="overflow:visible"
       inkscape:isstock="true">
      <path
         id="path6132"
         d="M 0.0,0.0 L 5.0,-5.0 L -12.5,0.0 L 5.0,5.0 L 0.0,0.0 z "
         style="fill-rule:evenodd;stroke:#000000;stroke-width:1.0pt"
         transform="scale(0.8) translate(12.5,0)" />
    </marker>
  </defs>
  <sodipodi:namedview
     id="base"
     pagecolor="#ffffff"
     bordercolor="#666666"
     borderopacity="1.0"
     inkscape:pageopacity="0.0"
     inkscape:pageshadow="2"
     inkscape:zoom="2.8"
     inkscape:cx="18.928572"
     inkscape:cy="73.035714"
     inkscape:document-units="px"
     inkscape:current-layer="layer1"
     showgrid="false"
     units="px"
     inkscape:window-width="1920"
     inkscape:window-height="1031"
     inkscape:window-x="0"
     inkscape:window-y="27"
     inkscape:window-maximized="1" />
  <metadata
     id="metadata4149">
    <rdf:RDF>
      <cc:Work
         rdf:about="">
        <dc:format>image/svg+xml</dc:format>
        <dc:type
           rdf:resource="http://purl.org/dc/dcmitype/StillImage" />
        <dc:title></dc:title>
      </cc:Work>
    </rdf:RDF>
  </metadata>
  <g
     inkscape:label="Calque 1"
     inkscape:groupmode="layer"
     id="layer1"
     transform="translate(0,-852.36224)">
    <rect
       style="opacity:1;fill:#e3aeff;fill-opacity:1;fill-rule:nonzero;stroke:#000000;stroke-width:0.414;stroke-linejoin:miter;stroke-miterlimit:3.8;stroke-dasharray:none;stroke-opacity:1"
       id="rect4696"
       width="200"
       height="200"
       x="0.207"
       y="852.15521" />
    <g
       transform="matrix(0.7026652,-0.71152063,0.71152063,0.7026652,0,0)"
       style="font-style:normal;font-variant:normal;font-weight:normal;font-stretch:normal;font-size:101.82045746px;line-height:125%;font-family:SoulMission;-inkscape-font-specification:SoulMission;letter-spacing:0px;word-spacing:0px;fill:#000000;fill-opacity:1;stroke:none;stroke-width:1px;stroke-linecap:butt;stroke-linejoin:miter;stroke-opacity:1"
       id="text4692">
      <path
         d="m -692.80092,743.38636 5.07113,0 q 1.49151,0.74575 1.49151,2.68472 l -0.2983,0.8949 q 3.23161,2.28699 6.51293,2.38642 l 0,8.05416 -1.19321,0 q -0.5966,0 -0.5966,-0.89491 l 0.2983,-0.89491 -0.2983,0 -0.89491,0.29831 0,-0.29831 0.29831,-0.2983 0,-0.2983 q -1.19321,0 -1.19321,-0.89491 1.49151,0 1.49151,-0.8949 l 0,-2.08812 -0.59661,-1.19321 -0.2983,0.29831 -1.74009,0 0.24858,-1.49151 -0.24858,0 -0.89491,1.1932 -0.2983,-0.2983 -0.89491,0 0,0.89491 q 0.94462,0.99434 1.78981,3.57962 l -0.2983,0.29831 0.2983,1.49151 -0.2983,1.78981 q 0.59661,0 0.59661,0.89491 l 0.24858,0.2983 0.5966,0 2.08812,-0.59661 0,0.59661 0.2983,0 1.49151,-0.2983 0,0.2983 -0.2983,1.49151 -0.5966,0 -0.29831,-0.2983 -0.2983,0.2983 -0.5966,0 0,-0.59661 -0.2983,0 0,1.19321 -0.59661,0 q 0,-1.49151 -0.5966,-1.49151 l -0.59661,0 -1.74009,1.78981 -2.98302,0 -1.78982,-1.1932 0.59661,-1.49151 -0.2983,0 q -2.38642,0.49717 -2.38642,1.1932 l 0,1.49151 -1.4418,0 q 0,-0.74575 -1.49151,-0.8949 0,-0.59661 -1.49151,-1.78981 l 0,-0.29831 0.29831,-0.2983 0.2983,0 0.2983,0.2983 0.2983,0 0,-0.8949 -0.2983,0.2983 -0.2983,0 0,-0.5966 0.5966,-0.89491 0,-0.89491 q -0.8949,0 -0.8949,1.78982 l -1.19321,0.2983 -0.29831,-1.78982 q 3.57963,-2.68471 4.72312,-5.07113 l 0.2983,0 0.29831,1.49151 q -1.34236,0.5966 -1.4418,1.19321 l 0,0.8949 q 0,0.69604 1.4418,0.89491 l 0.2983,-0.2983 0.8949,0.8949 0.29831,0 q 0,-0.74575 1.19321,-2.08811 l 0.2983,0.2983 0.2983,0 q 0.5966,0 0.5966,-1.19321 l 0.29831,-0.2983 0.2983,0 0.2983,0.2983 0,0.29831 -0.2983,0.8949 1.49151,0 0.5966,-0.5966 0,-0.2983 q 0,-0.79548 -1.49151,-0.89491 l 0,-0.89491 0.59661,0 q -0.19887,-1.49151 -1.78982,-1.49151 -0.79547,0 -0.8949,1.49151 l -0.59661,0 -0.2983,-0.2983 -0.2983,0.2983 -0.59661,0 -0.2983,-1.19321 1.19321,-0.2983 0,-0.5966 -2.08811,-0.89491 0,-0.2983 q 0.8949,-1.49151 2.38641,-1.49151 l -0.2983,-0.89491 -1.19321,0.2983 -1.19321,-0.2983 -1.14349,1.49151 0,0.89491 0.84519,0 0,0.5966 -0.2983,0 -0.24859,-0.2983 -0.2983,0 q 0,0.89491 -0.5966,0.89491 l -0.89491,0 0,-0.59661 -0.2983,0 -0.5966,0.59661 0.5966,0.8949 0,0.29831 -0.2983,-0.29831 -0.2983,0 q -1.19321,2.93331 -1.78982,2.98303 l -0.2983,0 0,-3.28133 0.2983,-0.2983 0,-0.2983 0.2983,0.2983 0.59661,0 q 0,-0.5966 -0.89491,-0.5966 l -0.2983,-0.29831 0,-3.87792 0.5966,-0.59661 q 0,1.49151 0.89491,1.49151 l 0.89491,-0.2983 0,0.5966 0.5966,0 1.49151,-2.08811 1.7401,-0.2983 z m -3.23161,0.2983 0.2983,0.2983 0,0.59661 -1.1932,0 0,-0.59661 0.8949,-0.2983 z m 5.61803,2.68472 0.8949,1.49151 1.19321,0 0.5966,-0.5966 -2.08811,-1.49152 -0.5966,0.59661 z m -6.81124,-0.2983 0,0.2983 0.59661,0 0,-0.2983 -0.59661,0 z m 5.91633,1.49151 0.5966,0.5966 0,-0.5966 -0.5966,0 z m 2.98302,1.19321 0,0.5966 0.5966,-0.5966 -0.5966,0 z m -3.87793,2.98302 0.59661,0 0,0.2983 -0.59661,0 0,-0.2983 z m -3.52991,3.57962 0.29831,0 0.5966,-0.5966 -0.2983,0 -0.59661,0.5966 z m 2.3367,1.19321 -0.5966,0.59661 0,0.5966 1.19321,-0.5966 -0.59661,-0.59661 z m -0.5966,1.49151 0,0.2983 0.5966,0 0,-0.2983 -0.5966,0 z m 4.17623,0 0,1.19321 0.2983,0 0.2983,-0.2983 0.29831,0 -0.29831,-0.89491 -0.5966,0 z m -8.00444,0.59661 0.5966,0 0,0.2983 -0.5966,0 0,-0.2983 z"
         style=""
         id="path6120" />
      <path
         d="m -653.52448,706.54605 0.24859,0.2983 0,0.2983 -0.54689,0.54689 -0.24858,0 0,-0.54689 0.54688,-0.5966 z m -15.56142,0.8949 0.24858,0 0.74576,0.84519 0,0.2983 -0.74576,0.89491 -0.24858,0 -0.54689,-0.5966 0,-0.89491 0.54689,-0.54689 z m -1.29265,2.28698 0.49718,0.59661 0,0.2983 -0.49718,0.59661 -0.24858,0 -0.49717,-0.59661 0.74575,-0.89491 z m 5.61803,0.59661 0.49717,0 1.04406,0.89491 0.24858,0 1.78981,-0.29831 0,1.7401 q 0.49717,0 0.49717,-1.7401 l 2.28699,0 3.08245,1.14349 2.78416,-0.2983 0,0.2983 0.24858,-0.2983 0.24859,0 0.54688,0.59661 -0.2983,0.2983 0.2983,0.2983 0.24859,0 0.24858,-0.89491 1.78982,0 q 0.44745,0 0.74575,1.49152 0.79547,0 0.79547,0.54688 l -0.2983,0.2983 -0.24858,0 q 0.79547,2.08812 0.79547,5.51859 l -0.24859,0.29831 0,0.2983 0.24859,0.8949 0.74575,0 q 0.59661,-0.14915 1.78982,-4.6734 0.49717,0 0.49717,-1.14349 l 0.24858,-0.2983 0.24859,0 q 0,0.54689 1.04405,0.54689 l 0,0.8949 0.49717,0 0.24859,-0.8949 -0.74576,-0.24859 0,-0.8949 0.49717,0 0,-0.59661 -0.99434,-0.2983 0.49717,-0.54689 1.54123,1.4418 -0.49717,0.8949 q 0.59661,1.24293 1.24293,1.4418 l 1.29264,-0.59661 0.99434,1.7401 -0.24859,1.49151 0.49718,0.54689 0,0.2983 q -0.74576,0 -0.74576,0.8949 0,1.1435 2.0384,1.1435 l -0.49717,0.5966 -0.49717,0 -7.65642,0.5966 0,-0.2983 q -1.7401,0.84519 -5.36944,0.84519 -1.29264,-4.07679 -6.61237,-4.07679 -3.77849,0 -4.87226,3.77849 l 0,0.5966 q 0,1.54123 6.11519,2.93331 0.14915,1.14349 0.79547,1.14349 l 0.24859,0 0.99434,-0.84519 q 3.57962,0 10.49029,2.28698 l 0,1.78982 0.99434,0.24858 1.29264,-0.84519 0.24859,0 q 2.08811,1.29264 3.33104,3.18189 -1.04406,1.34236 -1.04406,2.0384 0.2983,1.09377 1.29264,2.0384 l 1.78982,-0.59661 0.49717,2.0384 -0.24859,0.2983 0.49717,0.59661 0,2.03839 q 0,5.91633 -3.33104,7.85529 l -0.24859,-0.2983 -0.49717,0 0,0.59661 q 0.99435,0 0.99435,0.5966 l -0.74576,0.84519 -1.29264,-0.54689 -0.24859,0 0,0.24859 q 0.79547,0 0.79547,0.5966 l 0,0.2983 -1.04405,1.1435 -0.24859,0 0,-0.84519 q 0.74576,0 0.74576,-0.59661 l 0,-0.2983 q -1.49151,0 -2.0384,-2.3367 l -2.0384,0.5966 -0.24858,-0.2983 -0.49717,0.59661 -0.24859,-0.29831 -0.24858,0 q -1.04406,0 -1.04406,1.7401 l -0.24859,0 q -0.5966,0 -0.74575,-1.44179 l -0.79547,0.5966 -0.24859,-0.2983 -0.24858,0 q 0,0.49717 -1.54123,1.14349 l 0,0.2983 0.24858,0.89491 -0.74575,0 -0.24859,-0.2983 -1.54122,0.5966 -0.24859,-0.2983 -0.49717,0.54689 -0.24859,0 q -0.54688,0 -0.54688,-1.4418 l -0.24859,-0.2983 -0.24858,0 q -0.84519,1.19321 -1.54123,1.19321 l 0,-0.59661 -0.74576,0 -1.78981,1.4418 -2.78415,-0.2983 q -0.54689,1.83952 -1.29264,2.03839 l -5.61803,-0.24858 -0.24858,0.24858 -0.24859,0 q -1.49151,0 -2.58528,-3.77849 l -0.49717,0 0,-0.54689 1.78981,-2.635 0,-0.2983 q 0,-0.99434 -0.74576,-2.0384 l 0,-0.5966 0.24859,-0.29831 -0.49717,-2.03839 0.24858,0 7.90501,-0.84519 q 0,0.5966 1.78981,1.74009 1.4418,3.7785 6.61237,3.7785 5.61802,-0.64633 5.61802,-4.3751 0,-2.3367 -3.57962,-3.48019 l 0.24858,-0.29831 0,-1.14349 -0.74575,0 0.24858,1.4418 -0.24858,0 -9.94341,-2.3367 -0.24858,-0.84519 -0.54689,0 -0.49717,0.54688 q -4.82255,-1.04405 -4.82255,-2.58528 0,-0.89491 -0.79547,-0.89491 l -0.99435,0.29831 q -4.07679,-3.4802 -4.07679,-7.0101 0.74575,0 0.74575,-0.54689 l 0.24859,0.2983 0.49717,0 q 0,-1.19321 0.54689,-1.19321 -0.19887,-1.44179 -1.54123,-1.44179 l -0.74576,0.5966 -0.2983,0 0,-2.635 0.54689,-0.5966 0.74575,0.8949 0.49717,0 0.54689,-0.5966 q -1.78981,-1.19321 -1.78981,-2.0384 0.34802,-1.14349 0.74575,-1.14349 l 0.24859,0.24858 0.24858,0 1.04406,-0.24858 -0.49717,0.84519 0,0.5966 q 0,0.54689 1.49151,1.14349 0,1.34236 1.54123,1.7401 l 1.29264,-2.0384 -1.78981,-1.14349 -0.79547,0.89491 -0.24859,0 0,-0.29831 0.24859,-0.2983 0,-0.2983 q 0,-0.89491 -0.74576,-0.89491 l 0,-0.54688 0.49717,0 0.79547,0.54688 0,-1.14349 0.49717,0 1.04406,1.14349 q 1.24293,-0.44745 1.24293,-1.74009 l -0.74576,0.5966 -0.49717,-0.5966 0,-1.14349 0.24859,-1.4418 0.74575,0.54689 q 0,-1.7401 1.78982,-1.7401 l 0.24858,0.29831 0,0.2983 -1.29264,0.2983 0,0.84519 q 1.09377,-1.14349 2.0384,-1.14349 l 0.79547,0 -0.24859,0.2983 0,0.54689 0.24859,0 q 0,-0.69604 2.0384,-1.14349 l 0,-1.14349 0.49717,0 0,0.54688 -0.24859,0.2983 0,0.29831 0.49717,0.5966 -1.24292,0.2983 0,0.54689 q 0.74575,0 1.49151,1.19321 l 0.2983,0 0.49717,-0.59661 -1.29264,-1.14349 0.49717,0 1.04405,0.54689 0.24859,-0.2983 q 0.74575,-0.54689 0.74575,-1.4418 l 0.54689,0 0,-0.2983 -0.54689,0 -0.24858,0.2983 q -1.78981,-1.44179 -1.78981,-2.635 -0.59661,0 -0.74576,1.19321 l -1.29264,0 q -1.49151,-0.5966 -1.49151,-2.0384 l 0.49717,-0.5966 z m -1.04406,1.44179 0.54689,0 0,0.59661 -0.54689,0 0,-0.59661 z m 5.12085,1.19321 0.49717,0 0,-0.5966 -0.49717,0.5966 z m 6.36378,-0.5966 0,0.5966 0.24859,0 0,-0.5966 -0.24859,0 z m 8.40218,-0.29831 0,0.29831 0.2983,-0.29831 0.49717,0 0.49717,0.59661 q 0,1.09377 -1.78981,3.77849 0,1.19321 -0.49717,1.19321 l -0.24859,-0.2983 0,-1.19321 0.49717,-0.54689 -0.24858,-0.2983 q 0.24858,-3.23161 0.99434,-3.23161 z m -4.82255,0.59661 0,0.5966 0.49717,-0.5966 -0.49717,0 z m -17.10266,0 0.79548,0.2983 0,0.59661 -1.29265,-0.29831 -0.24858,0.29831 0,-0.29831 q 0,-0.5966 0.74575,-0.5966 z m 23.46644,0.5966 0.24858,0 0,0.54689 -0.24858,0 0,-0.54689 z m -12.23039,1.14349 0.24858,0.29831 0.24859,0 0.24858,-0.89491 -0.24858,0 -0.49717,0.5966 z m -1.78981,-0.2983 -0.24859,0.89491 0.24859,0.2983 0.74575,0 0.2983,-1.19321 -1.04405,0 z m 2.83387,0.59661 0,0.2983 0.49717,0 0,-0.89491 -0.49717,0.59661 z m 4.07679,-0.59661 0,0.59661 0.49717,0 -0.49717,-0.59661 z m -2.83387,0.89491 0,0.2983 0.24859,0 0.54688,-0.5966 0,-0.29831 -0.2983,0 -0.49717,0.59661 z m -16.55577,0 0.49717,0.5966 -0.49717,1.14349 -0.24858,0 q -0.5966,0 -0.79547,-1.44179 l 0.24858,-0.2983 0.79547,0 z m 4.57397,0.5966 -0.24858,0.24859 0,0.2983 0.74575,0 -0.49717,-0.54689 z m 6.11519,0.54689 -0.49717,0.89491 0.99434,0.2983 0,-0.59661 -0.49717,-0.5966 z m -8.15359,0.5966 0,0.59661 0.49717,0 -0.49717,-0.59661 z m 23.96361,0 -0.24859,1.1435 0.49717,1.49151 -0.24858,0.2983 q 0.79547,0 0.79547,0.54689 l -0.79547,0.2983 0,0.5966 1.29264,0 0,0.59661 -0.49717,0 0,0.24858 q 0.74575,0 0.74575,0.59661 l -0.49717,0 -1.04405,-0.84519 -1.54123,0 0,0.54688 q 0.89491,0 1.54123,0.89491 l 0.24858,0 2.3367,-0.5966 0,0.2983 0.24859,-0.2983 0.24858,0 0.24859,0.2983 0.24858,0 0.49717,-1.14349 0,-0.59661 -3.28132,-3.48019 0,-0.89491 -0.79547,0 z m -28.53757,0 0.49717,0 0,0.89491 -0.49717,0 0,-0.89491 z m 7.10953,0.59661 0,0.54689 1.54123,-0.24859 0,-0.2983 -0.74576,-0.2983 -0.79547,0.2983 z m 11.73322,0.2983 0,0.24859 0.54688,0.5966 0.49718,-0.5966 0,-0.24859 -0.49718,-0.5966 -0.54688,0.5966 z m 11.48463,0 0.49717,0.54689 0.54689,-0.54689 -0.54689,-0.5966 -0.49717,0.5966 z m -16.30718,-0.2983 0,0.2983 0.49717,0 0,-0.2983 -0.49717,0 z m 1.24292,0.2983 0,0.54689 0.2983,0 0,-0.54689 -0.2983,0 z m 2.3367,0 0,0.84519 0.24859,0 0.49717,-0.5966 -0.24859,-0.24859 -0.49717,0 z m -7.40783,1.14349 0.74575,0.59661 0.24859,-0.29831 0,-0.8949 -0.49717,0 -0.49717,0.5966 z m 9.69482,0 0.24858,0.2983 0.74576,0 0,-0.8949 -0.49717,0 -0.49717,0.5966 z m -14.0202,-0.2983 -0.24859,0.2983 0,1.14349 q 0,0.59661 1.24293,0.59661 l 0.24858,0.8949 q 0.79547,-0.2983 0.79547,-1.74009 0,-0.59661 -2.03839,-1.19321 z m 6.11519,0.5966 0,0.29831 0.49717,0.54688 0.49717,-0.54688 0,-0.29831 -0.49717,-0.5966 -0.49717,0.5966 z m 5.36944,-0.2983 0,0.2983 0.49717,0 0,-0.2983 -0.49717,0 z m 1.24292,0 0,0.59661 0.24859,0 0,-0.59661 -0.24859,0 z m 1.04406,0.89491 0,0.54689 0.24859,0 0,-0.54689 -0.24859,0 z m -12.2801,2.28698 -1.24293,-0.24858 q -1.29264,0.19886 -1.29264,0.84519 l 0,1.1932 q 0.49717,1.4418 1.78981,1.4418 0.54689,0 1.54123,-2.0384 l -0.24859,-0.2983 0.49717,-0.59661 0,-0.2983 -0.24858,-0.24858 0,-0.29831 -0.79547,0.54689 z m 16.10831,-0.24858 0,0.24858 0.49717,0 0,-0.24858 -0.49717,0 z m 0.49717,0.84519 0,1.1932 q 0.49717,-0.14915 0.99434,-1.49151 l -0.24858,-0.2983 -0.24859,0 -0.49717,0.59661 z m -24.75908,1.74009 0,0.59661 0.54689,-0.59661 -0.54689,0 z m 2.28699,1.19321 -0.24859,-0.2983 -0.74575,0 0,0.84519 1.54122,1.78981 -0.24858,0.24859 0,0.2983 0.74575,0.5966 1.04406,-1.44179 q -0.49717,0 -1.54123,-2.3367 l 0.49717,-0.59661 0,-0.2983 -0.24858,0 q -0.39774,0 -0.79547,1.19321 z m 1.54123,-0.89491 0,0.29831 0.54688,0.5966 0.24859,-0.2983 0,-0.59661 -0.79547,0 z m 0.54688,1.4418 0.49717,0 0,-0.54689 -0.49717,0.54689 z m -3.82821,1.49151 0,0.54689 0.24859,0 0,-0.54689 -0.24859,0 z m -2.0384,0 0.24859,0 0,0.54689 -0.24859,0 0,-0.54689 z m 10.93775,1.44179 0,0.2983 0.49717,0.59661 0.54689,-0.59661 0,-0.2983 -0.54689,-0.5966 -0.49717,0.5966 z m 6.91066,0.89491 0.49717,0.54689 0.24859,0 0.49717,-0.54689 0,-0.2983 -0.49717,-0.59661 -0.74576,0.89491 z m 5.86661,0.24858 0,0.59661 0.74576,0.8949 0.24858,0 q 0.39774,0 0.74576,-1.1932 l -0.24859,-0.84519 -0.99434,0 -0.49717,0.54688 z m -19.63822,2.93331 q 0.34802,0 0.74575,1.14349 l 0.49718,0 q 2.83387,-0.79547 2.83387,-1.44179 -0.79548,0 -1.78982,-1.7401 l 0.24859,-0.2983 0,-0.2983 -1.04406,-0.54689 -0.74576,0 q -0.54688,0 -0.74575,3.18189 z m 11.43491,-0.59661 -0.24858,0.29831 0,0.5966 0.79547,0 0,-0.2983 -0.54689,-0.59661 z m 13.77162,5.27001 q 0.5966,3.28132 2.58528,4.92198 l 0.24859,0 0.74575,-0.5966 0.54689,0.5966 2.53557,-2.3367 0.24858,0 0,-0.2983 q -0.74575,-1.09377 -0.74575,-2.58528 l 0.24858,-0.29831 q -0.79547,0 -0.79547,-1.74009 l -0.24858,0.2983 -0.24859,0 q 0,-0.89491 -2.53557,-1.49151 -1.88924,0 -2.28698,3.52991 l -0.2983,0 z m -15.01454,-1.49151 1.54123,0.5966 0.49717,-0.5966 0,-1.4418 -0.79548,-0.2983 q -1.24292,0.59661 -1.24292,1.7401 z m 4.32538,-1.14349 0,0.2983 q 0,0.49717 1.29264,0.84519 l -0.24858,1.49151 0,0.24858 0.49717,0 q 0.44745,0 0.74575,-1.44179 l -2.28698,-1.44179 z m -4.0768,2.3367 0,0.54688 0.49717,0 0,-0.54688 -0.49717,0 z m 13.27445,0.84518 0.49717,0 0,-0.54688 -0.49717,0.54688 z m 10.68916,2.3367 0,0.29831 0.49717,0 0,-0.29831 -0.49717,0 z m -4.0768,2.3367 0,0.59661 0.24859,0 0,-0.59661 -0.24859,0 z m -1.78981,0.89491 0,0.54689 0.79547,-0.2983 0,-0.84519 -0.2983,0 -0.49717,0.5966 z m -30.57597,0.54689 0.74576,2.635 q -0.89491,0 -1.29265,2.9333 l -0.24858,0.24859 0,0.5966 0.79547,1.19321 0,0.24859 -0.54689,0 q -2.53556,-2.78416 -2.53556,-4.92199 l 0.24858,0 0.24859,0.2983 q 1.29264,-0.39773 1.29264,-0.8949 l -0.24859,-2.0384 0.24859,-0.2983 1.29264,0 z m 27.24493,1.19321 0,0.54688 0.54689,0 0,-0.54688 -0.54689,0 z m 8.20331,0 0,0.2983 0.49717,0 0,-0.2983 -0.49717,0 z m -2.0384,3.48019 0.24858,0.2983 0.24859,0 q 0.74575,-1.09377 0.74575,-2.0384 l -0.49717,-0.5966 q -0.49717,0 -0.74575,2.3367 z m -7.90501,-0.2983 0.24859,1.1932 0.49717,0 q 0,-0.79547 1.29264,-1.49151 l 0,-0.54688 -0.54689,-0.59661 -0.49717,0 -0.99434,1.4418 z m 5.86661,-0.59661 0,0.2983 0.74576,0 0,-0.84519 -0.24859,0 -0.49717,0.54689 z m -32.91267,-0.24858 0,0.24858 0.49717,0 0,-0.24858 -0.49717,0 z m 36.69117,0.54688 -0.24859,1.19321 0.79547,0 0.24859,-0.8949 -0.24859,-0.29831 -0.54688,0 z m -10.93775,1.19321 0.74576,0.84519 0.54688,-0.54689 -0.79547,-0.8949 -0.49717,0.5966 z m 9.19765,0 0,0.54689 0.24858,0 0,-0.54689 -0.24858,0 z m -15.56143,1.4418 -0.24858,0.8949 0.24858,0 0.49717,-0.5966 0,-0.2983 -0.49717,0 z m -14.0202,0.8949 -0.2983,0.24859 0,1.19321 0.54689,0 0.24858,-1.19321 -0.24858,-0.24859 -0.24859,0 z m 8.15359,0 -0.24858,0.24859 0,0.5966 0.24858,0 0.49717,-0.5966 -0.24858,-0.24859 -0.24859,0 z m 3.03274,0.24859 0,0.5966 0.24859,0 0,-0.5966 -0.24859,0 z m 7.15925,0 0,0.5966 0.49717,0 0,-0.5966 -0.49717,0 z m -11.73321,1.19321 0,0.5966 0.49717,0.54689 0.49717,-0.54689 -0.49717,-0.5966 -0.49717,0 z m 16.30718,-0.29831 0.79547,0 0,0.59661 -0.79547,0 0,-0.59661 z m -8.89935,0.59661 0.49717,0 0.24859,0.84519 -0.24859,0.2983 -0.24858,0 -0.24859,-0.2983 0,-0.84519 z m -12.52869,0.54689 0,0.2983 0.54689,0 0,-0.2983 -0.54689,0 z m 21.42804,0 0.49717,0.5966 -0.74576,0.5966 -0.24858,-0.2983 0,-0.2983 0.49717,-0.5966 z m -5.86661,1.1932 0.49717,0 0,0.59661 -0.49717,-0.59661 z m 3.08246,0.29831 0.49717,0.54688 -0.49717,0.59661 -0.54689,-0.59661 0.54689,-0.54688 z m -1.29265,0.2983 0.49717,0.54688 0,0.29831 -0.49717,0.5966 -0.49717,-0.5966 0,-0.29831 0.49717,-0.54688 z m -1.54122,0.84519 0.24858,0 0.54689,0.5966 0,0.2983 -0.54689,0.54689 -0.74575,-0.84519 0.49717,-0.5966 z m -4.32539,1.74009 0.49717,0.59661 0,0.2983 -0.49717,0.5966 -0.49717,-0.5966 0,-0.2983 0.49717,-0.59661 z m -3.33104,2.0384 0.79548,0 0,0.5966 -0.24859,0 -0.54689,-0.5966 z"
         style=""
         id="path6122" />
      <path
         d="m -590.98046,708.38558 0.54688,0.64632 -0.54688,0.64632 -0.59661,0 -0.24858,-0.99434 0.24858,-0.2983 0.59661,0 z m 2.48585,2.53556 0.2983,0 0.54689,0.64632 -0.24859,0.34802 -0.5966,0 0,-0.99434 z m 3.08245,0.64632 1.1435,1.59095 1.39207,0.64632 0.84519,-0.64632 0.54689,0 0.54689,0.64632 0,0.2983 q -0.84519,1.19321 -0.84519,2.23727 l 0.84519,0 -0.29831,1.59094 -0.24858,0 -0.84519,-0.64632 -0.84519,0.99434 0,0.2983 1.39208,-0.2983 0.2983,0 0,0.2983 -1.98868,4.12652 -1.39208,-0.2983 -0.24858,0.2983 0,0.34802 1.09377,0.64632 -0.24858,1.88924 -0.29831,0 0,-0.64632 -0.54688,0 -1.1435,2.58529 -0.84519,0 0.59661,-0.64632 -0.2983,-0.34802 0,-1.88925 -0.54689,0 0,2.53557 -0.2983,0 -0.24859,-0.2983 -0.2983,0 -0.84519,0.94462 -0.2983,0 0.84519,0.94462 0,0.34802 0.2983,-0.34802 0.2983,0 q 0.54689,0 0.54689,0.94463 l 0.54689,0 0.84519,-0.59661 0.24858,0.2983 q 0,0.94463 -1.09377,0.94463 l -0.29831,0.34802 0,0.2983 0.59661,0.64632 -0.2983,0.2983 q -0.84519,1.09378 -0.84519,2.23727 l -0.54689,0 0.2983,1.59094 -1.14349,1.93897 -0.2983,0 0,-0.64632 -0.79547,0 0.24858,0.2983 0,0.64632 -1.09377,0.34802 -0.59661,-0.64632 0,0.2983 0.59661,1.93896 -0.2983,0.29831 -0.29831,0 0,-0.94463 -0.54688,0 0,0.94463 0.54688,0 0,0.2983 q 0,0.64632 -0.79547,0.64632 l 0,0.64632 0.79547,1.29264 0.29831,-0.34802 0.54688,0 -3.33104,9.59539 -0.2983,0 -0.24859,-0.34802 -0.2983,0 q 0,0.94462 -0.54688,0.94462 l 0.24858,0.34802 0,1.59095 -1.39208,0.2983 -0.54688,-0.64632 0,-0.59661 0.84519,-1.59094 -1.1435,-0.64632 -0.24858,0 0,0.64632 0.54689,0 0,0.2983 q 0,0.94462 -1.09378,0.94462 l 0,0.34802 2.23727,2.18755 q -0.2983,2.23727 -0.84519,2.23727 l -0.2983,-0.2983 0.2983,-0.34802 0,-0.59661 -0.2983,0 -0.29831,0.2983 -0.24858,0 q 0,-1.29264 -0.54689,-1.29264 l -0.5966,0 -0.79547,0.64632 -0.29831,0 0,-0.2983 q 0,-0.64632 0.84519,-0.64632 l -0.54688,-1.29264 -0.59661,0 q 0,0.99434 -0.84519,0.99434 l 0.2983,1.59094 -0.54688,0 -0.2983,-1.59094 1.69037,-2.23727 -0.54688,-0.64632 -1.39208,1.29264 -1.98868,-0.34802 -0.84519,1.93897 -0.54689,-0.64632 0.54689,-0.64632 0,-0.29831 -1.09377,0 q 0,1.59095 -0.84519,1.59095 l 0,0.5966 0.2983,0 0.84519,-0.2983 0,1.29264 -0.59661,0.59661 -0.24858,0 q -0.59661,0 -0.59661,-1.24293 -0.54688,0.14915 -1.09377,1.59095 l -0.54689,0 0,1.29264 q 1.09378,0 1.09378,0.5966 l -1.69038,1.29264 q -5.02142,0 -5.02142,-2.23726 l -1.09378,-3.18189 0.84519,-0.64632 q -0.39773,-1.59095 -0.84519,-1.59095 l -0.2983,0.34802 -0.24858,0 q -10.93775,-28.48785 -10.93775,-29.97936 l 1.14349,0.94462 0.54689,0 1.14349,-1.24292 0.79548,0.2983 0.5966,-0.94462 0,-0.34802 -0.84519,-0.2983 -0.2983,0.2983 -0.24859,0 -1.69038,-0.59661 -0.2983,0 q -0.54689,0 -0.54689,1.24293 l -0.2983,0.34802 -0.24858,0 -3.08246,-8.94907 1.39208,0.34802 0.54689,-0.64632 q 0.69603,0 0.84519,2.23727 l -0.24859,0.2983 1.39208,0 0.24858,-0.2983 0.2983,0 -0.2983,-0.34802 0,-1.59095 q 0.2983,-0.94462 1.69038,-0.94462 l 0.2983,0 1.93897,1.59095 1.09377,-0.29831 0.2983,0 q 0,1.78982 1.39208,2.18755 0.64632,0 1.69038,-2.53557 l 0.84519,0.34802 0,0.94463 q -0.84519,0 -0.84519,0.94462 l 0.24858,0.2983 0.29831,0 0.54688,-1.88924 0.59661,0 0,0.94462 -0.59661,0 0,0.34802 0.59661,0 0.54688,-1.29264 0.54689,0 0,0.64632 0.2983,0 0.84519,-0.34802 0.24859,0.34802 0.2983,-0.34802 q 1.29264,3.62934 2.23727,4.47453 l -0.29831,1.59094 3.62935,14.36822 -0.54689,0.59661 0,0.64632 q 0.5966,1.74009 1.69038,1.93896 l 1.09377,5.07114 0.2983,0 q 3.33105,-13.57275 5.86661,-20.08568 0,-2.98302 2.48585,-9.54567 l 0.29831,0 0.2983,0.34802 0.24858,-0.34802 0.54689,0 0.84519,0.64633 q 1.44179,-1.19321 7.25868,-1.88925 l 1.69038,0.94462 0,-0.34802 -0.54688,-0.94462 0,-0.94462 0.54688,-0.64633 z m -26.002,0.94463 0.2983,0.34802 0,0.2983 -0.2983,0.34802 -0.24858,0 -0.29831,-0.34802 0,-0.2983 0.29831,-0.34802 0.24858,0 z m 20.68228,3.52991 0,0.64632 0.84519,0 0,-0.64632 -0.84519,0 z m 2.53557,0.2983 0,0.64632 0.54689,0 0,-0.64632 -0.54689,0 z m 2.78415,0 0,1.29264 q 0.54689,0 0.54689,0.94462 l 0.84519,0 0,0.94463 -0.54689,0 0,0.64632 0.54689,0 0,-0.64632 0.2983,0.34802 0.24859,0 0,-0.34802 -0.24859,-2.23727 -0.54688,0 -0.29831,0.34802 -0.2983,0 -0.24858,-1.29264 -0.29831,0 z m -6.41349,1.29264 0,0.64632 0.24858,0 0,-0.64632 -0.24858,0 z m 6.41349,1.59095 0,0.2983 0.54689,0 0,-0.2983 -0.54689,0 z m -0.84519,0.64632 0,0.2983 0.54689,0 0,-0.2983 -0.54689,0 z m 0.84519,0.2983 0,0.64632 0.29831,0 0,-0.64632 -0.29831,0 z m 0.84519,0.34802 0,0.5966 1.09378,0.34802 0,-0.64632 -1.09378,-0.2983 z m -30.72512,1.88925 q 0,1.59094 1.69038,1.59094 l 0,0.2983 0.79548,-0.2983 0,-0.94462 -0.24859,0.2983 -0.54689,0 q -0.5966,0 -0.5966,-1.24293 l -0.24859,-0.34802 -0.2983,0 -0.54689,0.64633 z m 25.4054,0.2983 -0.24858,0.34802 0,0.2983 q 0,1.59094 1.64066,1.59094 l 0,0.34802 0.84519,-0.34802 0,-0.94462 q 0,-0.64632 -2.23727,-1.29264 z m -5.02142,1.29264 q 0.39774,1.29264 0.84519,1.29264 l 0.54689,-0.99434 0,-0.2983 -0.54689,-0.64632 -0.2983,0 -0.54689,0.64632 z m 1.39208,1.59094 0,0.64633 0.54689,0 0,-0.64633 -0.54689,0 z m 1.69038,1.29265 0.24858,0.2983 0.84519,0 0,-0.94462 -0.54688,0 -0.54689,0.64632 z m -27.09578,0 -0.2983,0.94462 0.2983,0.2983 0.84519,0 0,-0.5966 -0.5966,-0.64632 -0.24859,0 z m 6.1152,2.83387 0,-0.59661 -0.24859,0 -0.2983,3.82821 0.2983,0 -0.2983,0.29831 0,0.64632 0.54689,0 q 2.23726,-1.34236 2.23726,-2.23727 -1.64066,0 -1.64066,-0.64632 l 0,-0.2983 0.54689,-0.64632 q 0.54688,0 0.54688,0.94462 l 0.29831,0.2983 0.54688,0 0.29831,-1.59094 0,-1.59095 -0.59661,0 -2.23726,1.59095 z m 22.37265,-0.94463 0,0.34802 0.84519,0.94463 0.24859,0 0,-0.64633 -1.09378,-0.64632 z m 2.53557,1.29265 0,0.2983 0.54689,0 0,-0.2983 -0.54689,0 z m -6.46321,0.2983 0,0.64632 0.5966,0 -0.5966,-0.64632 z m -0.54689,0.94462 0,0.64632 0.54689,0 0,-0.64632 -0.54689,0 z m -31.86861,0 0.2983,0 2.23727,1.64066 0,0.29831 -0.54689,0.64632 -0.54688,0 -0.29831,-0.34802 -0.2983,0 -0.24858,0.34802 -0.59661,-0.94463 0,-0.64632 0.2983,-0.34802 0,-0.2983 -0.2983,-0.34802 z m 38.58041,0.34802 0,0.2983 0.54689,0.64632 0,-0.94462 -0.54689,0 z m -28.23927,1.29264 0,0.59661 0.29831,0 0,-0.59661 -0.29831,0 z m -1.93896,0.94463 0,0.64632 0.84519,-0.34802 0,-0.94462 -0.2983,0 -0.54689,0.64632 z m 5.56831,0.64632 0,0.2983 0.5966,0.64632 0.24858,0 0,-0.94462 -0.84518,0 z m 20.43369,0 0,0.5966 0.24859,0 0,-0.5966 -0.24859,0 z m -29.63134,1.24292 0,0.64632 0.54688,0 0,-0.64632 -0.54688,0 z m 23.76473,0.64632 0.54689,0 0,-0.64632 -0.54689,0.64632 z m 7.25869,0 0,0.29831 0.54688,0 0,-0.29831 -0.54688,0 z m -24.85851,0.64633 -0.2983,0.2983 0,0.99434 0.2983,0 0.54688,-0.64632 -0.54688,-0.64632 z m 19.53879,0.64632 0,0.94462 -0.29831,-0.2983 -0.24858,0 -0.2983,0.2983 0,0.2983 0.54688,0.64632 0,0.34802 -0.24858,0 -0.84519,-0.64632 -0.2983,0 0,0.64632 1.39207,1.59095 0.29831,-0.34802 q 0,0.54689 1.93896,1.29264 0,1.59095 0.5966,1.59095 l 0.24859,0 q 0,-0.94463 0.54689,-0.94463 l 0,-0.34802 -1.09378,-1.59094 -0.2983,0.34802 0,-0.64632 -0.24859,0 -0.84518,0.2983 0,-0.64632 0.84518,0 -0.2983,-1.24293 0.2983,-0.94462 -0.2983,0.2983 -0.2983,0 0,-0.2983 -0.24858,0.2983 -0.54689,0 0,-0.94462 -0.2983,0 z m 2.78415,0 0,0.64632 0.2983,0 0,-0.64632 -0.2983,0 z m -19.2902,1.24292 0.5966,0.64632 0.24858,0 -0.54688,-0.64632 -0.2983,0 z m -0.54689,0.64632 0,0.64633 0.54689,0 -0.54689,-0.64633 z m 11.48463,0 0,0.64633 0.54689,0.64632 0.54688,-0.94463 -0.2983,-0.34802 -0.79547,0 z m -6.16491,2.88359 0,0.2983 0.54689,0.64632 0.54688,0 0.59661,-0.64632 0,-0.2983 -0.59661,-0.64632 -0.54688,0 -0.54689,0.64632 z m 6.96038,1.88925 0,0.64632 0.59661,0.64632 0.24858,-0.2983 0,-0.99434 -0.84519,0 z m -11.9818,0.34802 0,0.64632 0.24859,0 0,-0.64632 -0.24859,0 z m 0.84519,0.64632 0,0.2983 0.54689,0 0,-0.2983 -0.54689,0 z m 1.64066,0 1.39208,1.59094 0.2983,0 0,-0.34802 -1.39208,-1.24292 -0.2983,0 z m -5.5683,1.24292 0,0.64633 0.54688,0 0,-0.64633 -0.54688,0 z m 16.20774,1.59095 0.54689,0 0,-0.64632 -0.54689,0.64632 z m -14.51737,0.64632 0,0.2983 0.84519,0.34802 0.24859,-0.34802 0,-0.94462 -0.54689,0 -0.54689,0.64632 z m 9.49595,0 0,0.64632 0.54689,0.64632 0.2983,0 0.24859,-0.99434 -0.24859,-0.2983 -0.84519,0 z m -3.08245,2.23727 0.54689,0.64632 0.54688,-0.64632 -0.54688,-0.64633 -0.54689,0.64633 z m -1.69038,0.64632 0.84519,0.64632 0.54689,-0.64632 0,-0.34802 -0.54689,-0.64632 -0.84519,0.99434 z m 3.38076,-0.99434 0.54689,0.64632 0,-0.64632 -0.54689,0 z m -4.77284,0.99434 0,0.64632 0.84519,0.94462 0.54689,-0.64632 0,-0.2983 -0.54689,-0.64632 -0.84519,0 z m 8.40218,1.24292 0,0.34802 0.84519,0 q 0,-0.64632 0.79547,-0.64632 l 0,-0.64632 q -1.64066,0.34802 -1.64066,0.94462 z m -5.86661,0 0,0.34802 0.54689,0 0,-0.34802 -0.54689,0 z m 5.56831,1.59095 0.2983,0.34802 0,0.64632 -0.5966,0.5966 -0.24859,-0.2983 0,-0.64632 0.54689,-0.64632 z m -8.40218,0.64632 0,1.29264 1.14349,0 0,-0.64632 -0.54688,-0.64632 -0.59661,0 z m 8.94907,1.29264 0.84519,0.2983 0,0.94463 q -1.4418,0 -1.69038,-0.94463 l 0.84519,-0.2983 z m -1.64067,0.64632 0,0.2983 -0.2983,0.29831 0,0.34802 0.84519,0.2983 0.54689,-0.64632 0.2983,1.29264 -0.84519,0.64632 -0.84519,0 0,-0.2983 0.2983,-0.34802 0,-0.2983 -0.2983,-0.34802 -0.2983,0 -0.24859,0.34802 -0.2983,-0.34802 0,-0.94463 1.14349,-0.2983 z m 2.48586,0.59661 1.69037,0 0,1.29264 -0.54688,0.64632 -0.29831,0 q 0,-0.84519 -0.84518,-1.93896 z m -0.54689,0.99434 0.54689,0 0.2983,1.24292 -0.54689,0 -0.2983,-1.24292 z m -3.62934,0.64632 0.54688,0 0,0.5966 -0.54688,0 0,-0.5966 z m -0.54689,0.5966 0.24858,0.34802 0,0.2983 -0.24858,0.34802 -0.59661,0 0,-0.34802 0.59661,-0.64632 z m 3.33104,0 0.84519,0 0,0.34802 -0.84519,0.94462 -0.2983,-0.2983 0.2983,-0.99434 z m 3.62934,0.34802 0.54689,0 -0.54689,0.64632 0,-0.64632 z m -5.56831,0.2983 0.54689,0 0.54689,0.64632 -0.54689,0 -0.54689,-0.64632 z"
         style=""
         id="path6124" />
      <path
         d="m -531.02174,709.52907 0.24859,0 0,0.64632 -0.84519,0 0,-0.19887 0.5966,-0.44745 z m -6.16491,1.49151 0.54689,0 0.54689,0.44745 0,0.24859 -0.54689,0.39773 -0.54689,0 -0.54689,-0.39773 0,-0.24859 0.54689,-0.44745 z m -2.78415,0.44745 0.84519,0 q 1.39207,0.64632 1.39207,1.29264 -0.39773,0.89491 -1.39207,1.29265 l -0.59661,0 -1.39207,-1.04406 0,-0.64632 1.14349,-0.89491 z m 7.25868,1.09378 0.2983,0 q 0.54689,0 0.54689,0.64632 l -0.2983,1.09377 -0.54689,0 -0.54688,-1.09377 0,-0.19887 0.54688,-0.44745 z m 2.48585,0.19886 0.29831,0.24859 0,0.39773 -0.84519,0 0,-0.19886 0.54688,-0.44746 z m -26.79747,0.24859 1.09377,0 q 8.40218,0 13.7219,5.41915 l 0,-2.83387 q 0,-0.44745 0.84519,-0.44745 l 2.48585,0.44745 1.14349,0 0,0.19887 -0.54688,0.44745 0.54688,1.93897 -0.54688,0 -0.59661,-0.39774 0,-0.24858 -1.09377,0.24858 0,0.84519 0.54688,0.44745 0.54689,0 1.14349,-0.64632 0.54689,0.39774 1.93896,-0.84519 -0.24858,-1.29264 0.24858,-0.64632 0.29831,0 1.69038,0.84519 0.54688,-0.44746 0.54689,0 0.54689,0.44746 0,0.19886 -0.24859,0.24859 0,0.19887 q 1.64066,0 1.64066,0.44745 l -0.54688,0.64632 q 0,1.29264 1.14349,1.29264 1.24292,-0.39773 1.39207,-0.84519 l 0,-0.44745 q 0,-0.54689 -1.14349,-0.64632 l 0,-0.44745 0.84519,-0.64632 q 0.54689,0 0.54689,1.09377 l 0.5966,0 -0.2983,-0.19887 0,-0.24858 0.2983,-0.19887 0.24859,0 q 0.5966,0 0.5966,1.09377 l 0.24859,-0.24858 0.2983,0 0.54689,0.44745 0,0.19887 -1.39208,-0.19887 -0.2983,0.19887 0,0.24858 0.5966,0.64633 0,1.74009 0.24859,1.93897 -0.24859,1.49151 0,0.24858 -2.23726,0.19887 -2.53557,-1.54123 q -2.53557,1.69038 -2.53557,3.03274 l 1.44179,0.69604 1.64067,-0.44746 q 1.69037,0.19887 1.69037,0.64633 l 0,0.19886 -0.2983,0 -1.39207,-0.19886 0,0.44745 q 1.14349,0.0994 1.14349,0.64632 l -1.98868,0 0,0.19887 q 0.39773,1.09377 1.98868,1.09377 l -0.2983,0.19887 0,0.19887 q -1.59095,0 -3.62935,-1.29264 l 0.54689,-0.39774 -2.48585,-0.64632 q 0,-0.64632 -0.84519,-0.64632 0,-1.7401 -3.38076,-1.7401 -3.03274,-0.79547 -3.03274,-1.74009 l -0.5966,0 0,1.09377 3.08246,1.49151 1.14349,-0.19887 q 1.44179,0 4.47453,3.67906 l -0.2983,0.19887 0,0.19887 0.84519,0.89491 0.54688,0 1.14349,-0.19887 3.62935,1.29264 0.24858,-0.24858 0.2983,0 1.69038,0.8949 0,3.03274 -0.84519,0 0.24859,-0.24859 0,-0.19886 -2.48585,-1.93897 0.24858,-1.09377 -0.54688,0 q 0,0.64632 -1.09378,0.64632 l -0.5966,0.44745 0,0.64632 3.08245,1.93897 -0.24858,1.09377 0.54688,1.09378 1.39208,-0.44746 0.2983,0.19887 0,9.09822 q 0,4.6734 -3.08245,7.35812 l -0.59661,0 0,-0.39774 0.59661,0 0,-0.24859 -0.59661,-0.39773 q 0,0.54689 -2.18755,0.84519 l 0,0.19887 2.18755,0.64632 0,0.64632 -0.24858,0 -0.84519,-0.19887 0.2983,0.19887 0,0.44745 -0.5966,0.44745 -0.54689,-0.44745 -0.54689,0.44745 0.2983,0.84519 q -0.84518,0.44746 -2.23726,0.44746 l 0.24858,0.19886 0,0.44746 -1.09377,0 0.24858,-1.09378 -0.24858,0 q -0.5966,0 -0.5966,0.89491 l -0.54689,0 q 0,-0.64632 -0.54689,-0.64632 l -0.2983,0.19887 0.2983,0.19886 0,0.24859 -0.2983,0.64632 -1.93897,0 0,0.19887 1.69038,0.24858 0,0.19887 -5.86661,1.09378 -0.2983,-0.64632 0.84519,-1.54123 0.2983,0.19887 0.54689,0 0,-0.39774 -0.84519,0 q 3.33104,-4.62368 3.33104,-7.15925 l -1.93896,-0.84519 -0.2983,0.19887 0,0.64632 0.5966,0 0,0.19887 -0.2983,0.24858 0,0.19887 0.2983,0.19887 0.24859,0 0.2983,-0.19887 0.2983,0.19887 0,0.64632 q 0,1.09377 -0.5966,1.09377 l -0.84519,-0.19886 0,0.19886 -0.24859,0.24859 0,0.19887 1.39208,0.19887 -0.54689,0.44745 -0.84519,-0.19887 -1.69038,0.19887 q 0,0.44745 1.39208,0.44745 l 0,0.39774 0.2983,0 0,-0.64632 0.24859,0 0.2983,0.24858 0.2983,0 q -0.69604,1.49151 -1.98868,1.49151 l 0.2983,0.24859 0,0.39773 q 0,1.14349 -0.84519,1.29265 l -0.24858,-0.19887 -0.2983,0 0,0.19887 0.54688,0.69603 q 0,1.49151 -2.78415,1.49151 l -5.56831,0 -6.16491,-0.19886 -0.2983,-1.09378 q -0.84519,0 -0.84519,0.84519 -4.62368,-0.49717 -5.27,-1.29264 l 0,-0.19887 0.54688,0 0,-0.24858 -0.54688,-0.39774 -0.2983,0 q 0,0.84519 -0.54689,0.84519 -1.29264,-0.39774 -1.39208,-0.84519 l 1.39208,-1.29264 -0.2983,-0.24859 -0.24859,0 -2.23727,0.24859 0,0.19887 0.79548,0 0,0.19886 -0.54689,0.44746 q -1.59094,-0.34802 -3.08246,-3.03274 -1.39207,-0.54689 -1.39207,-1.93897 l 0.2983,-0.24858 0.84519,0.24858 q 1.24293,-0.44745 1.39208,-0.8949 l 0,-0.19887 q 0,-1.44179 -2.78416,-1.7401 l -0.2983,-0.19886 0,-1.29265 0.54689,-0.44745 0.84519,0 q 2.18755,2.38642 2.78415,2.38642 l 1.69038,0.19887 0.2983,0 q 1.39208,0 3.33104,-1.7401 7.80557,0 7.80557,2.38642 1.54123,1.04405 3.92765,1.54122 0.44745,2.58529 3.92764,2.58529 l 0.84519,-0.84519 q -1.34236,-0.0994 -2.53557,-1.54123 l 0,-0.19887 q 3.57963,0 6.16491,-3.03273 l 0.24859,0 -0.24859,-1.29265 q 0,-1.09377 1.09378,-1.09377 l 0,-0.44745 -0.84519,0 0,-5.61803 q -5.66774,4.52425 -12.57841,4.52425 l -1.93896,-0.19887 -0.84519,0.19887 q -3.13217,0 -9.19765,-3.2316 -5.02142,-4.47454 -5.31972,-6.91067 0.54689,0 0.54689,-0.64632 l -0.24859,-0.64632 0.84519,-0.24859 -0.84519,-0.84519 0.54689,-0.64632 0.2983,0.19887 0.79547,0 q 0,-0.44745 -0.79547,-0.44745 0.79547,-3.67906 2.78416,-3.67906 l 0.54688,-2.13784 q 0,-1.83952 -1.39207,-1.93896 l 0,-0.44745 1.93896,-1.93897 0,-0.24858 q 0,-0.69604 -0.84519,-1.49151 l 0,-0.44745 0.2983,-0.19887 -0.54688,-1.7401 q 1.1932,0 2.23726,-2.58528 l 1.64066,-0.64632 0,-0.24859 -0.54688,0 -0.24859,0.24859 0,-0.24859 q 3.03274,-2.13783 9.19765,-2.13783 z m 2.53557,1.49151 0,0.44745 0.54688,1.09378 0.54689,0 0.54689,-1.54123 -0.84519,-0.44745 -0.24859,0 -0.54688,0.44745 z m 27.64266,0.44745 0.2983,0 0.54689,0.44746 0,0.64632 -0.84519,0.64632 -0.2983,0 -0.54689,-0.44746 0,-0.64632 0.84519,-0.64632 z m -16.75464,0.44746 0.54689,0.39773 0,0.24859 -0.54689,0 -0.54688,-0.44746 0.24858,-0.19886 0.2983,0 z m -4.77283,1.04405 0,0.44746 0.54689,0.44745 0.5966,-0.64632 -0.2983,-0.24859 -0.84519,0 z m 8.40218,0 0,0.64632 0.84519,0 -0.84519,-0.64632 z m -7.25869,0.89491 0,0.19887 0.54689,0.44745 0.84519,-0.64632 -0.84519,-0.44745 -0.54689,0.44745 z m 14.51737,0.44745 0,0.39774 0.54689,0.44745 0.54689,-0.44745 0,-0.39774 -1.09378,0 z m -21.77605,0.64632 0,0.19887 0.54688,0.44745 0.54689,0 0.54689,-0.44745 0,-0.19887 -0.54689,-0.44745 -0.54689,0 -0.54688,0.44745 z m 18.3953,0.19887 0,0.19887 0.5966,0.44745 0.24858,-0.19887 0,-0.44745 -0.84518,0 z m -13.92077,0.44745 q 0,0.64633 2.48585,0.84519 0,0.64633 0.54689,0.64633 l 0.2983,-0.19887 0,-0.24859 -2.23727,-1.29264 -1.09377,0.24858 z m 13.67218,0.39774 0,0.24859 0.54689,0 0,-0.24859 -0.54689,0 z m 1.93896,0.44745 0,0.44746 0.84519,0.19887 0.54689,-0.44746 -0.24858,-0.64632 -0.59661,0 -0.54689,0.44745 z m -37.6855,-0.19886 0.54689,0 q 0,0.54688 0.84519,1.29264 -0.84519,0 -0.84519,0.64632 l -0.2983,0 -0.84519,-0.64632 0.5966,-1.29264 z m 29.87993,0.19886 -0.2983,0.64633 0.2983,0.19886 0.84519,0 0,-0.39773 -0.5966,-0.44746 -0.24859,0 z m 3.62934,0 0,0.19887 0.54689,0 0,-0.19887 -0.54689,0 z m 7.80558,0.19887 0,0.44746 0.2983,0 0,-0.44746 -0.2983,0 z m -28.18955,0.44746 -0.59661,0.64632 0,0.24858 0.84519,0.64632 0.2983,0 0.84519,-0.64632 0,-0.69604 -1.39207,-0.19886 z m -7.55699,1.09377 0,0.19887 0.54689,0.44745 0.54688,-0.44745 0,-0.19887 -0.54688,-0.44745 -0.54689,0.44745 z m 35.19965,0 0,0.19887 0.2983,1.09377 -1.98868,-0.84519 -0.24858,0 -0.29831,1.04406 1.69038,0.64632 0.54689,-0.39773 0.84519,0.39773 0.54689,0 0.84518,-0.84519 q -0.94462,-1.49151 -1.39207,-1.49151 l -0.84519,0.19887 z m -6.16491,0.19887 q 0,1.29264 -1.39208,1.29264 l 0,0.44745 0.59661,0.44746 0.54688,0 q 0.89491,-0.64632 1.64067,-0.64632 l 0,-1.09378 -0.54689,-0.44745 -0.84519,0 z m 9.24736,0 0,0.24858 0.54689,0 0,-0.24858 -0.54689,0 z m -32.7138,0.8949 0,0.19887 0.59661,0.44746 0.24858,0 0.54689,-0.44746 0,-0.19887 -0.54689,-0.44745 -0.24858,0 -0.59661,0.44745 z m 3.08246,5.41916 -0.84519,-0.24859 -0.24858,0.24859 0,0.39774 0.54688,0.44745 0.29831,-0.19887 0.24858,0 0.2983,0.19887 -0.2983,0.64632 q 0,3.97736 1.93896,6.06548 l -0.24858,0.84519 1.39208,0 q 1.93896,1.09377 4.47453,1.09377 3.72877,0 6.71179,-3.67906 l -0.2983,-0.19887 0,-0.24858 q 1.04406,-2.3367 1.93897,-2.3367 l -0.24859,-0.24859 0,-0.44745 0.84519,-0.64632 0.24859,0 q 0,0.44745 1.39207,0.44745 l 0,0.44745 -0.54688,0 0,0.19887 q 0.84518,0 0.84518,0.44746 l -0.54688,0 -0.84519,-0.19887 -0.2983,0.19887 0,0.44745 0.2983,0 2.53557,-0.44745 0,0.19886 0.24858,-0.19886 0.2983,0 0.24859,0.19886 0.2983,0 0.54689,-0.84519 0,-0.44745 -3.62934,-2.58528 0,-0.64633 -0.84519,0 q -0.24859,1.49152 -0.84519,1.49152 l -0.24859,-0.19887 -0.2983,0 0.54689,-1.7401 0.2983,0.19887 0.54689,0 -0.84519,-0.64632 0,-0.19887 -1.09378,0 q 0,0.64632 -0.54689,0.64632 l -0.2983,0 q -2.03839,-4.32538 -7.25868,-4.32538 -5.22029,0 -6.7118,5.86661 z m -13.97048,-5.66774 0,0.24858 -0.54689,0.64633 0,0.39773 0.84519,0.89491 q -1.83953,1.04406 -1.98868,2.58528 l -0.24859,0.24859 -0.54688,0 0,-0.24859 0.24858,-0.84519 -0.24858,-0.24858 0,-0.19887 q 0,-3.48019 2.48585,-3.48019 z m 3.62934,1.09377 0,0.44746 0.84519,0 0.2983,-0.24859 0.24859,0 -0.24859,-0.64632 -0.5966,0 -0.54689,0.44745 z m 27.09578,-0.19886 0,0.19886 0.5966,0.44746 0,-0.24859 -0.5966,-0.39773 z m 13.12529,0.39773 0,0.44745 0.2983,0 0,-0.44745 -0.2983,0 z m -8.35246,0.69604 0,0.19887 1.39208,0 0,-0.19887 -0.54689,-0.44745 -0.2983,0 -0.54689,0.44745 z m 6.7118,-0.44745 0,0.19886 0.54688,0 0,-0.19886 -0.54688,0 z m -10.34114,0.84519 q 0,0.34802 1.09377,0.64632 l 0,-0.39774 -1.09377,-0.24858 z m 4.17623,0 -0.2983,0.24858 0,0.19887 0.5966,0.44745 0.24858,0 0,-0.44745 -0.54688,-0.44745 z m 6.16491,0.24858 0.54688,0 0.29831,0.64632 -0.29831,0 -0.54688,-0.44745 0,-0.19887 z m -3.08246,0.39774 0.54689,0 0,0.44745 -0.54689,0 0,-0.44745 z m -31.272,1.09377 0.54688,0.44745 0.54689,-0.44745 -0.54689,-0.44745 -0.54688,0.44745 z m -1.69038,-0.19887 0,0.19887 0.54689,0 0,-0.19887 -0.54689,0 z m 34.90135,-0.24858 0.54688,0 0,0.44745 -0.54688,0 0,-0.44745 z m -1.09378,1.74009 0.54689,0 0,-0.39773 -0.54689,0.39773 z m -35.49795,0.44746 q 0,0.44745 -1.09378,0.44745 l -0.2983,0.19887 0,0.19887 0.54689,0.44745 0.2983,0 q 0.54689,0 0.54689,-0.84519 l 0.54689,0 0,-0.44745 -0.54689,0 z m -7.25869,0 0.54689,0 0,0.19887 -0.54689,0 0,-0.19887 z m 42.20975,0.19887 0,0.44745 0.54689,0 0,-0.44745 -0.54689,0 z m -29.38275,0.44745 0,0.44745 0.5966,0 0,-0.44745 -0.5966,0 z m 32.16691,-0.19887 q 1.64066,0.19887 1.64066,0.64632 l 0,0.19887 -1.64066,-0.19887 0,-0.64632 z m -10.88803,0.39774 0.24859,0.24858 0,0.19887 -0.24859,0.19887 -0.5966,0 0,-0.19887 0.5966,-0.44745 z m -27.94097,0.8949 0.24859,0.64632 0.2983,0 0,-0.8949 -0.2983,0.24858 -0.24859,0 z m 39.67419,-0.44745 0.54688,0 0,0.19887 -0.54688,0.44745 0,-0.64632 z m -0.84519,0.64632 0.84519,0.64632 0,0.24859 -0.29831,0 -0.54688,-0.44746 0,-0.44745 z m -33.26069,1.09378 0,0.19886 0.84519,0 0,-0.64632 -0.2983,0 -0.54689,0.44746 z m 36.04484,-0.19887 0.2983,0.19887 0,0.19886 -0.2983,0.24859 -0.2983,0 -0.24859,-0.24859 0,-0.19886 0.24859,-0.19887 0.2983,0 z m -10.63944,1.04406 q 0,0.44745 2.23726,0.64632 l 0,0.24858 0.84519,-0.24858 q -0.84519,-0.54689 -0.84519,-1.04406 l -1.64066,0 -0.5966,0.39774 z m -27.94097,-0.19887 0,0.19887 0.59661,0.44745 0.24858,-0.19887 0,-0.24858 -0.24858,-0.19887 -0.59661,0 z m 1.4418,0.44745 -0.29831,0.19887 0,0.44745 0.84519,0 0,-0.24858 -0.54688,-0.39774 z m 1.39207,0.64632 0,0.19887 0.54689,0.44745 0.54689,-0.44745 0,-0.19887 -0.54689,-0.44745 -0.54689,0.44745 z m -8.10387,0.19887 0,0.44745 0.24858,0 0,-0.44745 -0.24858,0 z m 10.34114,0 0,0.19887 0.54689,0 0,-0.19887 -0.54689,0 z m -11.73322,0.44745 0,0.44746 0.24859,0 0,-0.44746 -0.24859,0 z m 0.24859,0.64632 0,0.19887 0.54688,0 0,-0.19887 -0.54688,0 z m 37.73522,1.7401 q 0.39773,0.84519 0.84519,0.84519 l 1.09377,0 0.84519,-0.64632 0,-0.44746 -1.09378,-0.84518 q -1.14349,0 -1.69037,1.09377 z m -6.7118,-0.44745 0,0.44745 0.54689,0 0,-0.44745 -0.54689,0 z m 2.53557,0.19886 0,0.44746 0.24858,0 0,-0.44746 -0.24858,0 z m -20.1354,0.24859 0,0.19887 0.54689,0 0,-0.19887 -0.54689,0 z m 21.52747,0 0,0.19887 0.54689,0 0,-0.19887 -0.54689,0 z m -2.83387,0.39774 -0.54688,0.69603 0,1.04406 1.14349,0.24859 0.84519,-0.24859 0.24858,0.24859 0.54689,0 0,-0.24859 -0.54689,0 0.54689,-0.39773 -0.24859,-0.24859 0,-0.19887 0.24859,-0.64632 -0.24859,0 -1.98868,-0.24858 z m -8.65076,1.09377 -0.24858,0.64632 0.79547,0.89491 -0.24859,-1.54123 -0.2983,0 z m -5.86661,0.89491 0,0.19886 0.54689,0.64633 1.14349,-0.19887 0,-0.64632 -0.54689,-0.44746 -0.5966,0 -0.54689,0.44746 z m 19.58851,0.19886 0.24858,0.19887 0,0.24859 -0.24858,0.84519 1.09377,0 0,-0.44746 -0.54688,-0.64632 1.09377,-0.39773 0,-0.44746 -0.24858,0 -1.39208,0.64632 z m -15.95916,0.44746 0,0.39773 0.5966,0 -0.5966,-0.39773 z m -14.51737,0.19887 -0.29831,0.19886 0,0.44746 0.29831,0 0.54688,-0.44746 -0.24858,-0.19886 -0.2983,0 z m 17.59982,0.44745 0,0.19887 0.54689,0.44745 0.2983,0 0,-0.64632 -0.84519,0 z m 4.77283,2.78415 q 0.59661,2.48585 2.78416,3.67906 l 0.24858,0 0.84519,-0.39773 0.59661,0.39773 2.78415,-1.69038 0.24858,0 0,-0.24858 -0.84518,-1.49151 0.2983,-0.64632 -0.2983,0 q -0.54689,0 -0.54689,-1.29265 l -0.24859,0.19887 -0.2983,0 q 0,-0.64632 -2.78415,-1.09377 -2.0384,0 -2.53557,2.58528 l -0.24859,0 z m 7.80558,-0.64632 0.2983,0.24859 -0.84519,0.19886 0,0.19887 0.54689,0.44746 0.2983,-0.19887 0.24858,0 0.84519,0.39773 q 1.93897,-0.24858 1.93897,-1.29264 -0.54689,-1.34236 -1.39208,-1.49151 l -0.84519,0 q -1.09377,0.34802 -1.09377,1.49151 z m 5.8666,-1.49151 -0.2983,0.19887 0,0.24858 0.2983,0.19887 0.54689,0 0,-0.19887 -0.54689,-0.44745 z m -28.78615,0.64632 0,0.64632 0.84519,0.19887 0.54689,-0.64632 0,-0.19887 -0.54689,-0.44745 -0.2983,0 -0.54689,0.44745 z m 27.64266,-0.19887 0,0.39774 0.59661,0 0,-0.39774 -0.59661,0 z m 2.53557,0 0,0.39774 0.2983,0 0,-0.39774 -0.2983,0 z m -21.22917,0.39774 0,0.24858 0.54689,0 0,-0.24858 -0.54689,0 z m 19.29021,0.44745 -0.59661,0.64632 0,0.64633 0.29831,-0.19887 0.2983,0 0.84519,0.19887 0,-1.09378 -0.84519,-0.19887 z m -27.09578,0.44746 0,0.39773 0.54689,0.44746 0.24858,0 0.59661,-0.44746 0,-0.19887 -0.59661,-0.44745 -0.79547,0.24859 z m 25.4054,2.38641 0.2983,0 1.09378,-0.64632 -0.29831,0 q -1.09377,0.2983 -1.09377,0.64632 z m 3.33104,-0.44745 0,0.44745 0.5966,0 -0.5966,-0.44745 z m -24.01332,0.19887 -0.24859,0.24858 0,0.39774 0.54689,0.44745 0.54689,-0.44745 0,-0.39774 -0.84519,-0.24858 z m 19.2902,0.44745 0,0.19887 0.54689,0 0,-0.19887 -0.54689,0 z m 5.02142,0 -0.2983,1.09378 0.84519,0 0,-1.09378 -0.54689,0 z m -1.39208,0.19887 0,0.24858 0.54689,0 0,-0.24858 -0.54689,0 z m -0.84518,1.29264 q 0,0.69604 -0.84519,0.69604 l 0.2983,0.64632 0.54689,0 0.84518,-0.64632 -0.84518,-0.69604 z m -5.86661,3.48019 0,0.64632 1.14349,-0.64632 -0.2983,-0.64632 -0.84519,0.64632 z m -36.29343,0.24859 0,0.39773 0.24859,0 0,-0.39773 -0.24859,0 z m 27.94097,2.3367 0.24858,1.34236 1.93897,-1.09378 0,-0.44745 -0.24859,0 -1.14349,0.64632 -0.24859,-0.19887 0,-0.24858 1.09378,-2.3367 q -0.74576,0 -1.64066,2.3367 z m -19.04162,-2.13783 0,0.19886 0.5966,0.44746 0.24859,0 0,-0.19887 -0.54689,-0.44745 -0.2983,0 z m 29.08446,0.44745 0,0.64632 0.24858,0 0.59661,-0.44745 -0.29831,-0.19887 -0.54688,0 z m -1.69038,0.84519 0,0.44745 0.54688,0 -0.54688,-0.44745 z m 5.5683,0.19887 -0.24858,0.8949 0.84519,0.64632 0.84519,-0.24858 -0.29831,-1.29264 -1.14349,0 z m -4.17623,0.64632 0,0.24858 0.54689,0.39774 0.2983,0 0.54689,-0.39774 0,-0.64632 -0.84519,0 -0.54689,0.39774 z m -34.90134,0.8949 0.24858,0.19887 0.2983,0 0.54689,-0.44745 0,-0.19887 -0.54689,0 -0.54688,0.44745 z m 13.97048,0.64633 0.54689,0.44745 0.84518,-0.89491 -0.2983,-0.19887 -0.24858,0 -0.84519,0.64633 z m 18.14671,-0.19887 0,0.39773 0.2983,0 0.54689,-0.39773 -0.84519,0 z m 2.23727,0.19887 q 0,0.44745 -1.14349,0.44745 l -0.24859,0.19887 0,0.19887 0.24859,0.24858 0,0.19887 q 3.67905,-0.34802 3.67905,-1.09378 l -1.44179,-0.19886 -1.09377,0 z m -8.94907,0.44745 0,0.39774 0.54689,0 -0.54689,-0.39774 z m 5.61803,0 0,1.29264 0.54688,0.39774 0.54689,-0.84519 0,-0.44745 -0.54689,-0.39774 -0.54688,0 z m -6.7118,0.64632 0.54689,0 0,-0.44745 -0.54689,0.44745 z m -0.84519,-0.24858 0,0.24858 0.54689,0 0,-0.24858 -0.54689,0 z m -23.76474,0.44745 0,0.44745 0.54689,0 -0.54689,-0.44745 z m 12.03152,0.44745 0.24859,0.19887 -0.24859,0.19887 0.54689,0 0.2983,-0.84519 -0.2983,0 -0.54689,0.44745 z m 2.23727,0 1.09377,0 0,-0.44745 -0.54688,0 -0.54689,0.44745 z m 1.64066,-0.44745 0,0.64632 0.5966,-0.44745 0,-0.19887 -0.5966,0 z m 7.55699,0 0,0.19887 q 0,0.34802 1.14349,0.64632 l 0,-0.39774 -1.14349,-0.44745 z m 5.86661,0 -0.24859,0.64632 0,0.19887 0.24859,0 0.2983,-0.64632 0,-0.19887 -0.2983,0 z m 5.8666,0.84519 0.29831,0.69604 0.24858,0 q 0,-0.69604 1.69038,-0.69604 l 0,-0.19887 q -1.39208,0 -1.39208,-0.64632 l -0.2983,0.19887 -0.24858,0.64632 -0.29831,0 z m -28.48785,-0.64632 0,0.44745 0.54689,0 0,-0.44745 -0.54689,0 z m 2.78415,0 0,0.44745 1.39208,0.44745 q 0,-0.44745 -1.09377,-0.44745 l 0,-0.44745 -0.29831,0 z m 15.66087,0 0,0.24858 0.2983,0.64632 0.24858,0 0,-0.24858 -0.24858,-0.64632 -0.2983,0 z m -22.37266,0.24858 0,0.39774 0.2983,0 0.54689,-0.39774 -0.84519,0 z m 3.08245,0 0,0.19887 0.54689,0 0,-0.19887 -0.54689,0 z m 1.69038,0.39774 0.54689,0 0,-0.39774 -0.54689,0.39774 z m 9.79425,-0.39774 0.54689,0.39774 0,-0.39774 -0.54689,0 z m 16.75464,0 0,0.64632 0.84519,0 0,-0.64632 -0.84519,0 z m -32.7138,0.19887 0,0.19887 0.54689,0 0,-0.19887 -0.54689,0 z m 7.0101,0 0,0.44745 0.54689,0 0,-0.44745 -0.54689,0 z m 5.02142,0 0,0.44745 1.69038,0 -0.2983,0.19887 0,0.24859 0.84518,0.19886 0,-0.64632 -2.23726,-0.44745 z m 7.80557,0.64632 0,0.24859 0.54689,0 0,-0.69604 -0.54689,0.44745 z m -20.93086,0 0.24858,0.64632 1.69038,-0.39773 0,-0.44746 -0.2983,0.19887 -0.24859,0 -0.2983,-0.19887 -0.24859,0 -0.84518,0.19887 z m 18.6936,0.24859 -0.24859,-0.24859 0,0.44745 0.84519,0.19887 0.24858,-0.84519 -0.84518,0.44746 z m 4.47453,0.19886 0,0.19887 0.2983,0 0.24858,-0.84519 q -0.54688,0 -0.54688,0.64632 z m 0.84519,-0.64632 0,0.19887 0.54688,0 0,-0.19887 -0.54688,0 z m -18.6936,0.19887 0,0.44745 0.24858,0 0,-0.44745 -0.24858,0 z m 1.93896,0 0,0.44745 1.09377,0.19887 0,-0.19887 -0.54688,-0.44745 -0.54689,0 z m 6.4135,0 0,0.44745 0.2983,0 0,-0.44745 -0.2983,0 z m 2.78415,0 0,0.24859 1.14349,0 0,-0.24859 -1.14349,0 z m 5.86661,0 -0.54689,0.89491 0,0.19887 0.54689,0 0.5966,-0.84519 -0.2983,-0.24859 -0.2983,0 z m 2.83387,0 0,0.44745 0.24858,0 0,-0.44745 -0.24858,0 z m 3.62934,0 0,0.24859 0.79547,0 0,-0.24859 -0.79547,0 z m 3.03274,0 0,0.24859 0.84519,0 0,-0.24859 -0.84519,0 z m 1.39208,0 0,0.44745 0.5966,0 0,-0.44745 -0.5966,0 z m 2.83387,0 0,0.44745 0.24858,0 0,-0.44745 -0.24858,0 z m -32.7138,0.24859 0,0.19886 0.54688,0 0,-0.19886 -0.54688,0 z m 5.61802,0.19886 0,0.19887 0.54689,0 0,-0.19887 -0.54689,0 z m 7.25868,0 -0.2983,0.19887 0,0.24859 0.54689,0.39773 0.5966,0 0.54689,-0.39773 -1.39208,-0.44746 z m 3.87793,0 0,0.19887 0.59661,0 0,-0.19887 -0.59661,0 z m -15.36256,0.19887 0,0.44746 0.84519,0 0,-0.19887 -0.84519,-0.24859 z m 1.14349,0 0,0.24859 0.54689,0 0,-0.24859 -0.54689,0 z m 5.02142,0 -0.2983,0.64632 0,0.24859 0.2983,0 0.54689,-0.44745 -0.54689,-0.44746 z m 0.84519,0.44746 0.54689,0 0,-0.44746 -0.54689,0.44746 z m 12.82699,-0.44746 0,0.44746 0.29831,0 0,-0.44746 -0.29831,0 z m 3.92765,0 0,0.24859 0.54689,0 0,-0.24859 -0.54689,0 z m 5.31972,0 0,0.24859 0.84519,0 0,-0.24859 -0.84519,0 z m -14.51737,0.24859 0,0.39773 0.24858,0 0,-0.39773 -0.24858,0 z m -15.41228,0.39773 0,0.44746 0.59661,0 -0.59661,-0.44746 z m 8.70048,0 0,0.24859 0.54689,0 0,-0.24859 -0.54689,0 z m 7.50727,0 0,0.44746 0.2983,0 0,-0.44746 -0.2983,0 z m 2.23727,0 q 0,0.44746 -1.09378,0.44746 0,0.64632 -0.84519,0.64632 l 0,0.19887 1.09378,0.8949 0.2983,0 q 0.79547,0 1.14349,-1.93896 l -0.2983,-0.24859 -0.2983,0 z m -14.21907,0.24859 -0.5966,0.64632 0,0.19887 1.14349,-0.19887 0,-0.24859 -0.54689,-0.39773 z m 10.34114,0 0,0.19887 0.54689,0 0,-0.19887 -0.54689,0 z m 8.89935,0 0,0.19887 1.14349,0 0,-0.19887 -1.14349,0 z m 3.38075,0 0,0.19887 0.84519,0 0,-0.19887 -0.84519,0 z m -20.68228,0.19887 0,0.19886 0.84519,0 0,-0.19886 -0.84519,0 z m 1.39208,0 0,0.19886 0.84519,0 0,-0.19886 -0.84519,0 z m 13.4236,0.44745 0.54688,0 0,-0.44745 -0.54688,0.44745 z m -19.53879,-0.24859 0,0.24859 0.54688,0 0,-0.24859 -0.54688,0 z m 22.32294,0.24859 0,0.19887 1.14349,0 -0.2983,-0.19887 0,-0.24859 -0.84519,0.24859 z m 2.53557,-0.24859 0,0.24859 0.54688,0 0,-0.24859 -0.54688,0 z m -15.66086,0.24859 -0.29831,0.19887 0,0.19887 0.84519,0.24858 0,-0.24858 -0.54688,-0.39774 z m -5.31973,0.39774 0,0.24858 1.39208,0 0,-0.44745 -1.39208,0.19887 z m 24.01333,-0.39774 0.5966,0.39774 -1.39208,0.69603 0,-0.24858 0.79548,-0.64632 0,-0.19887 z m -27.34437,0.39774 0,0.44745 0.54689,0 0,-0.44745 -0.54689,0 z m 17.59983,0 0,0.44745 0.24858,0 0,-0.44745 -0.24858,0 z m -15.66086,0.24858 0,0.19887 0.54688,0 0,-0.19887 -0.54688,0 z m 3.92764,0 0,0.44745 0.84519,-0.24858 0,-0.19887 -0.84519,0 z m 6.4135,0.19887 0,0.24858 0.54689,0 0,-0.24858 -0.54689,0 z m 0.84519,0 0,0.24858 0.84519,0 0,-0.24858 -0.84519,0 z m -5.86661,0.24858 0,0.19887 0.84519,0 0,-0.19887 -0.84519,0 z m 10.58972,0.19887 0,0.19887 0.59661,0 0,-0.19887 -0.59661,0 z"
         style=""
         id="path6126" />
    </g>
  </g>
</svg>
